# xmcd CD database file generated by Grip 2.96
# 
# Track frame offsets:
#       183
#       13145
#       24245
#       29795
#       41720
#       55895
#       66545
#       80495
#       91820
#       105558
#       110270
#       122045
#       129620
#       141620
#       148070
#       167420
#       176945
#       191945
#       199145
#       212345
# 
# Disc length: 2941 seconds
# 
# Revision: 0
# Processed by: cddbd v1.4b42PL1 Copyright (c) Steve Scherf et al.
# Submitted via: Grip 2.96
# 
DISCID=2f0b7b14
DTITLE=Leadbelly - The Leadbelly Story
DYEAR=1900
DGENRE=
TTITLE0=Keep your hands off her
TTITLE1=Stewball
TTITLE2=Lining track
TTITLE3=Goodnight Irene
TTITLE4=Cow cow yicky yicky yeah out on the western plains
TTITLE5=The blood done sign my name
TTITLE6=The gallis pole
TTITLE7=Fiddler's dream
TTITLE8=National defence blues
TTITLE9=Meeting at the building
TTITLE10=We shall be free
TTITLE11=Jean Harlow
TTITLE12=Outskirts of town
TTITLE13=There's a man going round taking names
TTITLE14=John Hardy
TTITLE15=Corn bread rough
TTITLE16=Bourgeois Blues
TTITLE17=Poor Howard
TTITLE18=Dekalb blues
TTITLE19=On a Monday
EXTD=
EXTT0=
EXTT1=
EXTT2=
EXTT3=
EXTT4=
EXTT5=
EXTT6=
EXTT7=
EXTT8=
EXTT9=
EXTT10=
EXTT11=
EXTT12=
EXTT13=
EXTT14=
EXTT15=
EXTT16=
EXTT17=
EXTT18=
EXTT19=
PLAYORDER=
